<?xml version="1.0" standalone="no"?>
<svg xmlns:xlink="http://www.w3.org/1999/xlink" id="wave" style="transform:rotate(180deg); transition: 0.3s" viewBox="0 0 1440 490" version="1.1" xmlns="http://www.w3.org/2000/svg"><defs><linearGradient id="sw-gradient-0" x1="0" x2="0" y1="1" y2="0"><stop stop-color="rgba(6, 15, 98, 1)" offset="0%"/><stop stop-color="rgba(6, 15, 98, 1)" offset="100%"/></linearGradient></defs><path style="transform:translate(0, 0px); opacity:1" fill="url(#sw-gradient-0)" d="M0,392L26.7,383.8C53.3,376,107,359,160,334.8C213.3,310,267,278,320,253.2C373.3,229,427,212,480,196C533.3,180,587,163,640,171.5C693.3,180,747,212,800,228.7C853.3,245,907,245,960,212.3C1013.3,180,1067,114,1120,147C1173.3,180,1227,310,1280,367.5C1333.3,425,1387,408,1440,351.2C1493.3,294,1547,196,1600,187.8C1653.3,180,1707,261,1760,261.3C1813.3,261,1867,180,1920,155.2C1973.3,131,2027,163,2080,187.8C2133.3,212,2187,229,2240,236.8C2293.3,245,2347,245,2400,245C2453.3,245,2507,245,2560,204.2C2613.3,163,2667,82,2720,49C2773.3,16,2827,33,2880,40.8C2933.3,49,2987,49,3040,98C3093.3,147,3147,245,3200,294C3253.3,343,3307,343,3360,334.8C3413.3,327,3467,310,3520,285.8C3573.3,261,3627,229,3680,196C3733.3,163,3787,131,3813,114.3L3840,98L3840,490L3813.3,490C3786.7,490,3733,490,3680,490C3626.7,490,3573,490,3520,490C3466.7,490,3413,490,3360,490C3306.7,490,3253,490,3200,490C3146.7,490,3093,490,3040,490C2986.7,490,2933,490,2880,490C2826.7,490,2773,490,2720,490C2666.7,490,2613,490,2560,490C2506.7,490,2453,490,2400,490C2346.7,490,2293,490,2240,490C2186.7,490,2133,490,2080,490C2026.7,490,1973,490,1920,490C1866.7,490,1813,490,1760,490C1706.7,490,1653,490,1600,490C1546.7,490,1493,490,1440,490C1386.7,490,1333,490,1280,490C1226.7,490,1173,490,1120,490C1066.7,490,1013,490,960,490C906.7,490,853,490,800,490C746.7,490,693,490,640,490C586.7,490,533,490,480,490C426.7,490,373,490,320,490C266.7,490,213,490,160,490C106.7,490,53,490,27,490L0,490Z"/></svg>